<svg xmlns="http://www.w3.org/2000/svg" width="320" height="224" viewBox="0 0 320 224"><defs><linearGradient id="g" x1="0" y1="0" x2="1" y2="1"><stop stop-color="#f3ddff"/><stop offset=".38" stop-color="#a35ed8"/><stop offset=".8" stop-color="#592385"/><stop offset="1" stop-color="#3d2850"/></linearGradient><linearGradient id="r" x1="0" y1="0" x2="0" y2="1"><stop stop-color="#fff4ca"/><stop offset=".5" stop-color="#9b835d"/><stop offset="1" stop-color="#574764"/></linearGradient><linearGradient id="bay" x1="0" y1="0" x2="0" y2="1"><stop stop-color="#6f3199"/><stop offset="1" stop-color="#35194f"/></linearGradient></defs><path d="M42 10H278L250 51C235 73 230 91 230 112s5 39 20 61l28 41H42l28-41c15-22 20-40 20-61s-5-39-20-61Z" fill="url(#r)" stroke="#f8df9c" stroke-width="7"/><path d="M67 29H253l-21 34c-10 16-14 31-14 49s4 33 14 49l21 34H67l21-34c10-16 14-31 14-49s-4-33-14-49Z" fill="url(#g)" stroke="#f9ecff" stroke-width="5"/><rect x="74" y="67" width="172" height="90" rx="43" fill="url(#bay)" stroke="#f0d4ff" stroke-width="5"/><path d="M31 14H289M31 210H289" stroke="#fff2c5" stroke-width="10" stroke-linecap="round"/></svg>
