<svg xmlns="http://www.w3.org/2000/svg" width="900" height="180" viewBox="0 0 900 180">
  <defs>
    <linearGradient id="body" x1="0" y1="0" x2="1" y2="0"><stop stop-color="#321347"/><stop offset=".5" stop-color="#642657"/><stop offset="1" stop-color="#321347"/></linearGradient>
    <linearGradient id="rim" x1="0" y1="0" x2="0" y2="1"><stop stop-color="#fff0bc"/><stop offset=".42" stop-color="#d19954"/><stop offset="1" stop-color="#684027"/></linearGradient>
  </defs>
  <path d="M43 19 103 8H797L857 19 888 90 857 161 797 172H103L43 161 12 90Z" fill="url(#rim)"/>
  <path d="M60 34 111 24H789L840 34 866 90 840 146 789 156H111L60 146 34 90Z" fill="url(#body)"/>
  <path d="M91 47H809M91 133H809" stroke="#ffd6ef" stroke-opacity=".56" stroke-width="5"/>
  <path d="m48 90 39-38 20 38-20 38Zm804 0-39-38-20 38 20 38Z" fill="#d35396"/>
  <path d="m81 68 12 22-12 22M819 68l-12 22 12 22" fill="none" stroke="#fff0bf" stroke-width="6"/>
</svg>
